<?xml version="1.0" encoding="iso-8859-1"?>
<!-- Uploaded to: SVG Repo, www.svgrepo.com, Generator: SVG Repo Mixer Tools -->
<svg fill="#000000" height="800px" width="800px" version="1.1" id="Layer_1" xmlns="http://www.w3.org/2000/svg" xmlns:xlink="http://www.w3.org/1999/xlink" 
	 viewBox="0 0 511.999 511.999" xml:space="preserve">
<g>
	<g>
		<path d="M509.545,54.236c-1.564-1.44-3.654-2.164-5.78-1.981c-6.101,0.508-18.322,5.163-25.434,19.385
			c-1.901,3.802-10.751,9.625-18.56,14.762c-15.617,10.275-35.053,23.062-40.737,42.243c-4.517,15.245,5.637,27.098,14.596,37.553
			c12.99,15.161,18.09,22.435,2.851,35.98c-21.889,19.457-23.38,59.672-20.775,89.982c2.672,31.089,10.892,63.657,16.458,72.005
			c0.307,0.46,0.346,0.679,0.347,0.679c-0.09,2.303-7.815,8.154-11.966,11.298c-2.056,1.557-4.138,3.136-6.167,4.776
			c-2.621-3.345-6.429-6.277-11.436-8.768c-8.046-4.003-18.241-6.596-29.035-9.342c-16.044-4.08-34.227-8.705-37.937-17.303
			c-3.007-6.972-3.205-17.081-3.414-27.784c-0.468-24.049-1.053-53.977-34.339-69.126c-18.318-8.338-37.13-7.549-50.326,2.101
			c-9.238,6.757-14.257,16.969-13.097,26.653c1.045,8.724,6.969,15.936,16.25,19.783c16.154,6.696,22.114,21.467,18.225,45.157
			c-0.246,1.5-0.907,3.742-1.607,6.117c-4.026,13.664-12.403,42.096,23.945,60.671c15.375,7.857,24.021,14.549,28.844,19.323
			c-45.922,0.215-81.221-8.618-107.095-15.114c-23.088-5.795-38.339-9.626-49.712-4.508c-9.964,4.484-13.932,12.306-17.432,19.206
			c-5.135,10.122-9.191,18.117-33.353,18.654c-21.151,0.47-39.144,10.295-52.034,28.415c-9.469,13.312-12.829,26.47-12.968,27.024
			c-1.019,4.075,1.458,8.203,5.533,9.222c0.618,0.154,1.239,0.229,1.85,0.229c1.351,0,2.653-0.362,3.788-1.016h445.366
			c4.2,0,7.604-3.404,7.604-7.604V59.831C511.999,57.705,511.109,55.676,509.545,54.236z M298.529,395.534
			c-25.115-12.835-20.42-28.771-16.277-42.83c0.836-2.84,1.626-5.522,2.026-7.952c6.393-38.93-11.376-55.025-27.408-61.671
			c-2.914-1.207-6.488-3.496-6.973-7.541c-0.5-4.17,2.238-9.104,6.974-12.568c4.177-3.056,15.954-9.224,35.049-0.534
			c24.566,11.179,24.988,32.747,25.432,55.579c0.239,12.239,0.464,23.799,4.655,33.513c6.674,15.469,27.76,20.833,48.153,26.019
			c14.741,3.749,31.303,7.965,33.122,14.694c-1.768,2.698-3.038,5.546-4.274,8.325c-2.43,5.467-5.131,11.539-13.334,16.615
			c-7.565-7.324-24.96-22.227-50.732-32.911c-26.958-11.178-25.537-27.252-25.463-27.93l-0.02,0.147l-15.039-2.263
			c-0.171,1.142-3.765,28.147,34.698,44.095c18.698,7.753,32.646,18.086,40.87,25.173c-7.744,2.025-17.753,3.552-30.83,4.335
			C335.476,421.081,325.517,409.326,298.529,395.534z M496.792,495.305L496.792,495.305H66.585
			c6.024-12.802,19.729-32.864,46.612-33.461c33.266-0.739,40.96-15.905,46.578-26.978c3.219-6.346,5.276-10.043,10.111-12.218
			c6.554-2.951,21.211,0.731,39.767,5.388c27.124,6.81,64.258,16.166,113.344,15.558c28.519-0.335,49.466-3.572,63.795-9.855
			c0.347-0.125,0.685-0.281,1.015-0.458c1.345-0.617,2.653-1.253,3.878-1.927c13.608-7.492,18.007-17.384,21.22-24.609
			c1.341-3.015,2.499-5.62,4.017-7.414c3.215-3.8,8.092-7.495,12.808-11.067c5.361-4.062,10.424-7.897,13.829-12.334
			c6.857-8.938,3.733-16.494,1.261-20.202c-2.793-4.19-11.144-32.111-13.959-64.872c-3.261-37.942,2.324-65.4,15.726-77.312
			c27.043-24.039,9.923-44.021-1.406-57.243c-8.543-9.971-13.584-16.517-11.564-23.337c4.104-13.852,20.26-24.482,34.514-33.859
			c10.772-7.086,20.073-13.206,23.803-20.665c1.454-2.908,3.161-5.055,4.859-6.641V495.305z"/>
	</g>
</g>
<g>
	<g>
		<path d="M219.428,55.673c-1.738-2.254-43.163-55.202-95.975-55.202c-31.769,0-59.471,18.944-78.098,36.183L12.278,14.946
			c-2.773-1.821-6.404-1.632-8.974,0.461c-2.571,2.093-3.489,5.611-2.269,8.694L15.316,60.19L1.044,95.911
			c-1.232,3.083-0.32,6.61,2.25,8.711c1.394,1.139,3.099,1.716,4.813,1.716c1.448,0,2.9-0.413,4.171-1.246l32.71-21.465
			c16.431,15.226,45.346,36.535,78.465,36.535c52.811,0,94.237-52.949,95.975-55.202C221.537,62.223,221.537,58.409,219.428,55.673z
			 M49.265,62.626L24.13,79.121l6.43-16.095c0.721-1.804,0.724-3.814,0.009-5.62L24.014,40.84l25.251,16.571
			c1.225,0.804,1.407,1.978,1.407,2.608C50.672,60.647,50.49,61.822,49.265,62.626z M93.763,46.144h57.333
			c-1.943,8.768-2.218,17.649-0.823,26.362h-56.51c-4.2,0-7.604,3.404-7.604,7.604s3.405,7.604,7.604,7.604h60.726
			c1.12,2.794,2.431,5.549,3.921,8.257c-10.708,5.318-22.569,8.979-34.958,8.979c-26.37,0-50.399-16.683-65.348-29.957
			c4.878-3.433,7.777-8.982,7.777-14.975c0-5.841-2.75-11.264-7.405-14.715c14.729-12.995,38.71-29.626,64.975-29.626
			c12.693,0.001,24.834,3.835,35.743,9.362c-1.083,1.949-2.087,3.914-2.99,5.896h-62.44c-4.2,0-7.604,3.404-7.604,7.604
			S89.564,46.144,93.763,46.144z M171.566,88.325c-9.398-17.455-9.137-37.449,0.723-55.538
			c14.465,9.759,25.599,21.259,31.163,27.527C197.794,66.688,186.382,78.466,171.566,88.325z"/>
	</g>
</g>
<g>
	<g>
		<path d="M217.127,352.909c-0.611-2.779-15.523-68.333-63.299-90.839c-28.738-13.537-61.872-8.205-86.071-0.549l-20.672-33.733
			c-1.732-2.826-5.096-4.206-8.315-3.407c-3.218,0.798-5.548,3.589-5.758,6.899l-2.46,38.734L2.418,296.248
			c-2.428,2.264-3.107,5.842-1.676,8.838c1.274,2.671,3.962,4.329,6.859,4.328c0.354,0,0.711-0.024,1.068-0.075l38.738-5.48
			c8.376,20.777,25.452,52.376,55.414,66.489c12.884,6.068,26.651,8.302,39.949,8.301c36.018-0.002,68.549-16.391,70.399-17.34
			C216.244,359.732,217.869,356.283,217.127,352.909z M62.611,284.926c-0.268,0.569-0.934,1.553-2.385,1.759l-29.767,4.21
			l12.677-11.818c1.421-1.324,2.28-3.142,2.403-5.08l1.13-17.781l15.78,25.75C63.214,283.216,62.879,284.357,62.611,284.926z
			 M147.392,338.668l-51.121-24.081c-3.8-1.789-8.33-0.159-10.12,3.639c-1.791,3.799-0.161,8.33,3.638,10.12l54.935,25.879
			c-0.177,3.004-0.165,6.055,0.028,9.139c-11.953,0.247-24.244-1.493-35.451-6.774c-23.856-11.237-38.485-36.57-46.351-54.949
			c5.876-1.027,10.863-4.812,13.417-10.234c2.489-5.283,2.312-11.362-0.428-16.466c18.865-5.48,47.646-10.306,71.407,0.888
			c11.482,5.408,20.83,14.05,28.344,23.7c-1.811,1.301-3.556,2.651-5.218,4.06l-56.487-26.609c-3.8-1.79-8.33-0.159-10.12,3.639
			c-1.791,3.799-0.161,8.33,3.638,10.12l51.866,24.433C153.877,322.277,149.843,330.193,147.392,338.668z M159.915,362.052
			c-1.063-19.797,7.693-37.77,24.322-49.934c8.927,14.994,14.099,30.141,16.461,38.184
			C192.862,353.656,177.519,359.446,159.915,362.052z"/>
	</g>
</g>
<g>
	<g>
		<path d="M383.247,146.359c-2.103-1.917-52.102-46.869-104.107-37.685c-31.285,5.521-55.273,28.991-70.623,49.205l-36.345-15.627
			c-3.046-1.31-6.589-0.494-8.757,2.013c-2.169,2.509-2.461,6.133-0.724,8.957l20.336,33.057l-7.849,37.657
			c-0.677,3.251,0.832,6.565,3.729,8.186c1.163,0.652,2.443,0.969,3.713,0.969c1.894,0,3.769-0.706,5.216-2.068l28.481-26.822
			c16.101,10.381,41.963,23.556,69.516,23.554c4.665-0.001,9.384-0.378,14.105-1.212c52.008-9.178,83.603-68.519,84.922-71.039
			C386.463,152.442,385.799,148.687,383.247,146.359z M216.882,182.777l-21.885,20.611l3.536-16.967
			c0.396-1.901,0.051-3.881-0.967-5.536l-9.335-15.175l27.745,11.931c1.346,0.579,1.731,1.704,1.839,2.324
			C217.924,180.584,217.948,181.773,216.882,182.777z M297.295,211.568c-25.972,4.583-52.534-7.671-69.56-18.146
			c4.207-4.229,6.098-10.198,5.056-16.099c-1.015-5.752-4.666-10.615-9.849-13.203c12.249-15.359,32.976-35.904,58.841-40.469
			c12.498-2.207,25.121-0.541,36.825,3.007c-0.729,2.108-1.376,4.218-1.921,6.329l-61.489,10.851
			c-4.136,0.73-6.898,4.674-6.168,8.81c0.651,3.689,3.859,6.283,7.48,6.283c0.439,0,0.884-0.037,1.33-0.117l56.461-9.964
			c-0.389,8.973,0.882,17.767,3.77,26.104l-55.649,9.821c-4.136,0.73-6.898,4.674-6.168,8.81c0.651,3.689,3.859,6.283,7.48,6.283
			c0.439,0,0.884-0.038,1.33-0.117l59.801-10.553c1.593,2.564,3.369,5.056,5.313,7.471
			C320.562,203.755,309.516,209.412,297.295,211.568z M341.81,186.859c-12.306-15.562-15.531-35.307-8.96-54.847
			c15.948,7.1,28.914,16.497,35.48,21.701C363.877,160.978,354.699,174.571,341.81,186.859z"/>
	</g>
</g>
</svg>