<?xml version="1.0" encoding="utf-8"?>
<svg viewBox="0 0 61.706 61.708" width="61.706" height="61.708" xmlns="http://www.w3.org/2000/svg">
  <path fill="#D62E45" d="M 30.854 3.117 C 46.174 3.117 58.596 15.531 58.596 30.857 C 58.596 46.177 46.174 58.59 30.854 58.59 C 15.531 58.59 3.111 46.177 3.111 30.857 C 3.111 15.531 15.531 3.117 30.854 3.117"/>
  <polygon fill="#5B0000" points="43.15 22.889 47.701 18.01 45.753 16.059 40.872 20.615 35.996 16.059 34.045 18.01 38.598 22.889 34.045 27.767 35.996 29.713 40.872 25.166 45.753 29.713 47.701 27.767"/>
  <path fill="#5B0000" d="M 13.234 42.396 L 14.861 44.025 C 18.698 40.966 22.793 39.474 27.217 39.015 L 28.583 47.28 C 28.974 49.678 31.119 50.975 34.044 50.975 C 37.103 50.975 40.94 49.162 40.94 45.908 C 40.94 45.254 40.418 42.396 40.028 40.25 C 42.303 41.094 44.579 42.332 46.728 44.025 L 48.352 42.396 C 43.798 36.869 37.298 34.275 30.795 34.275 C 24.288 34.275 17.786 36.869 13.234 42.396 Z M 32.624 37.812 L 34.527 38.156 L 36.001 46.542 L 34.188 46.837 L 32.624 37.812 Z"/>
  <polygon fill="#5B0000" points="22.991 22.889 27.54 18.01 25.591 16.059 20.713 20.615 15.835 16.059 13.888 18.01 18.437 22.889 13.888 27.767 15.835 29.713 20.713 25.166 25.591 29.713 27.54 27.767"/>
  <path fill="#5B0000" d="M 30.854 3.117 C 46.174 3.117 58.596 15.531 58.596 30.857 C 58.596 46.177 46.174 58.59 30.854 58.59 C 15.531 58.59 3.111 46.177 3.111 30.857 C 3.111 15.531 15.531 3.117 30.854 3.117 M 30.854 0 C 13.84 0 0 13.85 0 30.857 C 0 47.86 13.841 61.708 30.854 61.708 C 47.864 61.708 61.706 47.86 61.706 30.857 C 61.706 13.85 47.864 0 30.854 0 Z"/>
</svg>