<?xml version="1.0" encoding="utf-8"?>
<svg viewBox="0 0 61.704 61.708" width="61.704" height="61.708" xmlns="http://www.w3.org/2000/svg">
  <path fill="#83E828" d="M 30.852 3.117 C 46.177 3.117 58.602 15.531 58.602 30.857 C 58.602 46.177 46.177 58.59 30.852 58.59 C 15.537 58.59 3.112 46.177 3.112 30.857 C 3.111 15.531 15.536 3.117 30.852 3.117"/>
  <path fill="#0F4D00" d="M 26.906 22.039 L 19.787 29.159 L 12.657 22.039 C 11.423 20.81 10.442 19.824 10.442 17.615 C 10.442 15.056 12.562 12.942 15.114 12.942 C 17.677 12.942 19.787 15.056 19.787 17.615 C 19.787 15.056 21.886 12.942 24.449 12.942 C 27.002 12.942 29.122 15.056 29.122 17.615 C 29.122 19.824 28.141 20.81 26.906 22.039 Z"/>
  <path fill="#0F4D00" d="M 48.804 22.039 L 41.673 29.159 L 34.543 22.039 C 33.319 20.81 32.339 19.824 32.339 17.615 C 32.339 15.056 34.448 12.942 37.011 12.942 C 39.564 12.942 41.673 15.056 41.673 17.615 C 41.673 15.056 43.782 12.942 46.346 12.942 C 48.899 12.942 51.019 15.056 51.019 17.615 C 51.019 19.824 50.037 20.81 48.804 22.039 Z"/>
  <path fill="#0F4D00" d="M 11.286 32.408 C 11.286 42.486 19.987 50.618 30.788 50.618 C 41.589 50.618 50.29 42.486 50.29 32.408 L 11.286 32.408 Z"/>
  <path fill="#0F4D00" d="M 30.852 3.117 C 46.177 3.117 58.602 15.531 58.602 30.857 C 58.602 46.177 46.177 58.59 30.852 58.59 C 15.537 58.59 3.112 46.177 3.112 30.857 C 3.111 15.531 15.536 3.117 30.852 3.117 M 30.852 0 C 13.838 0 0 13.85 0 30.857 C 0 47.86 13.838 61.708 30.852 61.708 C 47.865 61.708 61.704 47.86 61.704 30.857 C 61.703 13.85 47.864 0 30.852 0 Z"/>
</svg>