<?xml version="1.0" encoding="utf-8"?>
<svg viewBox="0 0 61.706 61.708" width="61.706" height="61.708" xmlns="http://www.w3.org/2000/svg">
  <path fill="#EB4138" d="M 30.854 3.117 C 46.174 3.117 58.594 15.531 58.594 30.857 C 58.594 46.177 46.174 58.59 30.854 58.59 C 15.531 58.59 3.109 46.177 3.109 30.857 C 3.109 15.531 15.531 3.117 30.854 3.117"/>
  <path fill="#5B0200" d="M 30.983 35.719 C 25.132 35.719 17.981 38.321 14.076 45.471 L 15.703 46.769 C 20.254 42.223 25.457 40.92 30.983 40.92 C 36.51 40.92 41.715 42.223 46.264 46.769 L 47.891 45.471 C 43.991 38.32 36.837 35.719 30.983 35.719 Z"/>
  <polygon fill="#5B0200" points="38.786 23.357 47.891 18.479 46.591 16.207 33.583 22.06 33.583 24.66 46.591 30.514 47.891 28.236"/>
  <polygon fill="#5B0200" points="28.383 22.06 15.375 16.207 14.076 18.479 23.181 23.357 14.076 28.236 15.375 30.514 28.383 24.66"/>
  <path fill="#5B0200" d="M 30.854 3.117 C 46.174 3.117 58.594 15.531 58.594 30.857 C 58.594 46.177 46.174 58.59 30.854 58.59 C 15.531 58.59 3.109 46.177 3.109 30.857 C 3.109 15.531 15.531 3.117 30.854 3.117 M 30.854 0 C 13.838 0 0 13.85 0 30.857 C 0 47.86 13.839 61.708 30.854 61.708 C 47.862 61.708 61.706 47.86 61.706 30.857 C 61.706 13.85 47.862 0 30.854 0 Z"/>
</svg>