<?xml version="1.0" encoding="utf-8"?>
<svg viewBox="0 0 61.702 61.708" width="61.702" height="61.708" xmlns="http://www.w3.org/2000/svg">
  <path fill="#F1661F" d="M 30.856 3.117 C 46.176 3.117 58.601 15.531 58.601 30.857 C 58.601 46.177 46.176 58.59 30.856 58.59 C 15.539 58.59 3.113 46.177 3.113 30.857 C 3.113 15.531 15.539 3.117 30.856 3.117"/>
  <path fill="#680F00" d="M 30.846 35.271 C 24.987 35.271 17.838 37.871 13.936 45.021 L 15.563 46.324 C 20.114 41.773 25.319 40.47 30.846 40.47 C 36.372 40.47 41.568 41.773 46.124 46.324 L 47.753 45.021 C 43.851 37.871 36.699 35.271 30.846 35.271 Z"/>
  <path fill="#680F00" d="M 39.3 16.407 C 36.758 16.407 34.748 19.334 34.748 22.915 C 34.748 26.485 36.758 29.412 39.3 29.412 C 41.831 29.412 43.851 26.485 43.851 22.915 C 43.851 19.334 41.831 16.407 39.3 16.407 Z"/>
  <path fill="#680F00" d="M 22.384 16.407 C 19.853 16.407 17.838 19.334 17.838 22.915 C 17.838 26.485 19.853 29.412 22.384 29.412 C 24.926 29.412 26.946 26.485 26.946 22.915 C 26.945 19.334 24.926 16.407 22.384 16.407 Z"/>
  <path fill="#680F00" d="M 30.856 3.117 C 46.176 3.117 58.601 15.531 58.601 30.857 C 58.601 46.177 46.176 58.59 30.856 58.59 C 15.539 58.59 3.113 46.177 3.113 30.857 C 3.113 15.531 15.539 3.117 30.856 3.117 M 30.856 0 C 13.84 0 0 13.85 0 30.857 C 0 47.86 13.841 61.708 30.856 61.708 C 47.864 61.708 61.702 47.86 61.702 30.857 C 61.702 13.85 47.864 0 30.856 0 Z"/>
</svg>