<?xml version="1.0" encoding="utf-8"?>
<svg viewBox="0 0 61.708 61.708" width="61.708" height="61.708" xmlns="http://www.w3.org/2000/svg">
  <path fill="#FF9C00" d="M 30.856 3.117 C 46.181 3.117 58.596 15.531 58.596 30.857 C 58.596 46.177 46.181 58.59 30.856 58.59 C 15.525 58.59 3.116 46.177 3.116 30.857 C 3.116 15.531 15.525 3.117 30.856 3.117"/>
  <path fill="#782B00" d="M 39.547 15.928 C 37.016 15.928 35.001 18.854 35.001 22.43 C 35.001 26.006 37.016 28.932 39.547 28.932 C 42.089 28.932 44.114 26.006 44.114 22.43 C 44.114 18.854 42.089 15.928 39.547 15.928 Z"/>
  <path fill="#782B00" d="M 22.645 15.928 C 20.108 15.928 18.099 18.854 18.099 22.43 C 18.099 26.006 20.108 28.932 22.645 28.932 C 25.187 28.932 27.196 26.006 27.196 22.43 C 27.196 18.854 25.187 15.928 22.645 15.928 Z"/>
  <polygon fill="#782B00" points="16.664 32.666 15.035 36.246 39.943 47.491 41.509 43.914"/>
  <path fill="#782B00" d="M 30.856 3.117 C 46.181 3.117 58.596 15.531 58.596 30.857 C 58.596 46.177 46.181 58.59 30.856 58.59 C 15.525 58.59 3.116 46.177 3.116 30.857 C 3.116 15.531 15.525 3.117 30.856 3.117 M 30.856 0 C 13.843 0 0 13.85 0 30.857 C 0 47.86 13.844 61.708 30.856 61.708 C 47.864 61.708 61.708 47.86 61.708 30.857 C 61.707 13.85 47.864 0 30.856 0 Z"/>
</svg>