<?xml version="1.0" encoding="utf-8"?>
<svg viewBox="0 0 61.708 61.708" width="61.708" height="61.708" xmlns="http://www.w3.org/2000/svg">
  <path fill="#FFCE00" d="M 30.852 3.117 C 46.177 3.117 58.603 15.531 58.603 30.857 C 58.603 46.177 46.177 58.59 30.852 58.59 C 15.542 58.59 3.113 46.177 3.113 30.857 C 3.112 15.531 15.542 3.117 30.852 3.117"/>
  <rect x="17.193" y="38.82" fill="#7F4601" width="27.308" height="3.902"/>
  <path fill="#7F4601" d="M 39.3 15.928 C 36.759 15.928 34.749 18.854 34.749 22.43 C 34.749 26.006 36.759 28.932 39.3 28.932 C 41.837 28.932 43.847 26.006 43.847 22.43 C 43.847 18.854 41.837 15.928 39.3 15.928 Z"/>
  <path fill="#7F4601" d="M 22.398 15.928 C 19.857 15.928 17.836 18.854 17.836 22.43 C 17.836 26.006 19.857 28.932 22.398 28.932 C 24.93 28.932 26.945 26.006 26.945 22.43 C 26.945 18.854 24.93 15.928 22.398 15.928 Z"/>
  <path fill="#7F4601" d="M 30.852 3.117 C 46.177 3.117 58.603 15.531 58.603 30.857 C 58.603 46.177 46.177 58.59 30.852 58.59 C 15.542 58.59 3.113 46.177 3.113 30.857 C 3.112 15.531 15.542 3.117 30.852 3.117 M 30.852 0 C 13.85 0 0 13.85 0 30.857 C 0 47.86 13.85 61.708 30.852 61.708 C 47.871 61.708 61.708 47.86 61.708 30.857 C 61.708 13.85 47.87 0 30.852 0 Z"/>
</svg>