<?xml version="1.0" encoding="utf-8"?>
<svg viewBox="0 0 61.703 61.708" width="61.703" height="61.708" xmlns="http://www.w3.org/2000/svg">
  <path fill="#FFEC01" d="M 30.852 3.117 C 46.166 3.117 58.591 15.531 58.591 30.857 C 58.591 46.177 46.166 58.59 30.852 58.59 C 15.526 58.59 3.101 46.177 3.101 30.857 C 3.101 15.531 15.525 3.117 30.852 3.117"/>
  <path fill="#7A5C00" d="M 39.353 16.185 C 36.822 16.185 34.796 19.117 34.796 22.693 C 34.796 26.269 36.821 29.201 39.353 29.201 C 41.895 29.201 43.91 26.269 43.91 22.693 C 43.91 19.117 41.895 16.185 39.353 16.185 Z"/>
  <path fill="#7A5C00" d="M 22.444 16.185 C 19.902 16.185 17.888 19.117 17.888 22.693 C 17.888 26.269 19.902 29.201 22.444 29.201 C 24.986 29.201 26.991 26.269 26.991 22.693 C 26.991 19.117 24.986 16.185 22.444 16.185 Z"/>
  <path fill="#7A5C00" d="M 32.012 39.865 C 33.636 39.865 37.422 39.865 39.564 37.592 L 40.07 37.033 L 42.486 38.187 L 42.074 39.115 C 40.345 42.924 35.746 44.279 32.012 44.279 L 24.122 44.273 L 24.122 39.859 L 32.012 39.865 Z"/>
  <path fill="#7A5C00" d="M 30.852 3.117 C 46.166 3.117 58.591 15.531 58.591 30.857 C 58.591 46.177 46.166 58.59 30.852 58.59 C 15.526 58.59 3.101 46.177 3.101 30.857 C 3.101 15.531 15.525 3.117 30.852 3.117 M 30.852 0 C 13.838 0 0 13.85 0 30.857 C 0 47.86 13.838 61.708 30.852 61.708 C 47.854 61.708 61.703 47.86 61.703 30.857 C 61.702 13.85 47.854 0 30.852 0 Z"/>
</svg>