<?xml version="1.0" encoding="utf-8"?>
<svg viewBox="0 0 61.714 61.708" width="61.714" height="61.708" xmlns="http://www.w3.org/2000/svg">
  <path fill="#E6EB00" d="M 30.862 3.117 C 46.176 3.117 58.602 15.531 58.602 30.857 C 58.602 46.177 46.176 58.59 30.862 58.59 C 15.526 58.59 3.122 46.177 3.122 30.857 C 3.122 15.531 15.526 3.117 30.862 3.117"/>
  <path fill="#5E5B00" d="M 47.496 33.752 C 42.612 38.947 38.056 41.553 30.904 41.553 C 23.752 41.553 19.207 38.948 14.334 33.752 L 12.699 35.049 C 15.959 42.201 23.11 46.757 30.904 46.757 C 38.71 46.757 45.86 42.201 49.12 35.049 L 47.496 33.752 Z"/>
  <path fill="#5E5B00" d="M 39.363 16.185 C 36.821 16.185 34.806 19.117 34.806 22.693 C 34.806 26.269 36.821 29.201 39.363 29.201 C 41.895 29.201 43.909 26.269 43.909 22.693 C 43.909 19.117 41.895 16.185 39.363 16.185 Z"/>
  <path fill="#5E5B00" d="M 22.456 16.185 C 19.925 16.185 17.899 19.117 17.899 22.693 C 17.899 26.269 19.924 29.201 22.456 29.201 C 24.998 29.201 27.002 26.269 27.002 22.693 C 27.002 19.117 24.998 16.185 22.456 16.185 Z"/>
  <path fill="#5E5B00" d="M 30.862 3.117 C 46.176 3.117 58.602 15.531 58.602 30.857 C 58.602 46.177 46.176 58.59 30.862 58.59 C 15.526 58.59 3.122 46.177 3.122 30.857 C 3.122 15.531 15.526 3.117 30.862 3.117 M 30.862 0 C 13.849 0 0 13.85 0 30.857 C 0 47.86 13.85 61.708 30.862 61.708 C 47.874 61.708 61.714 47.86 61.714 30.857 C 61.714 13.85 47.875 0 30.862 0 Z"/>
</svg>