<?xml version="1.0" encoding="utf-8"?>
<svg viewBox="0 0 61.703 61.708" width="61.703" height="61.708" xmlns="http://www.w3.org/2000/svg">
  <path fill="#C6E605" d="M 30.852 3.117 C 46.177 3.117 58.591 15.531 58.591 30.857 C 58.591 46.177 46.177 58.59 30.852 58.59 C 15.537 58.59 3.112 46.177 3.112 30.857 C 3.112 15.531 15.537 3.117 30.852 3.117"/>
  <path fill="#FFFFFF" d="M 11.924 33.73 C 11.924 41.702 20.346 48.124 30.788 48.124 C 41.229 48.124 49.642 41.702 49.642 33.73 L 11.924 33.73 Z"/>
  <path fill="#475900" d="M 40.544 16.101 C 36.642 16.101 34.047 18.701 32.739 21.632 L 35.017 23.257 C 36.314 20.979 37.939 19.676 40.543 19.676 C 43.138 19.676 45.09 21.3 46.06 23.257 L 48.338 21.632 C 47.052 18.701 44.437 16.101 40.544 16.101 Z"/>
  <path fill="#475900" d="M 21.043 16.101 C 17.13 16.101 14.535 18.701 13.228 21.632 L 15.506 23.257 C 16.803 20.979 18.438 19.676 21.043 19.676 C 23.638 19.676 25.589 21.3 26.56 23.257 L 28.828 21.632 C 27.54 18.701 24.935 16.101 21.043 16.101 Z"/>
  <g transform="matrix(1, 0, 0, 1, -559.6854248046875, -222.96176147460938)">
    <path fill="#475900" d="M570.961,255.882c0,8.869,8.712,16.015,19.513,16.015s19.502-7.146,19.502-16.015H570.961z M600.304,258.433h6.561c0,3.693-2.563,6.43-6.561,8.486V258.433z M591.286,258.433h7.383v9.24 c-2.184,0.887-4.704,1.408-7.383,1.492V258.433z M582.278,258.433h7.372v10.732c-2.679-0.084-5.199-0.605-7.372-1.492V258.433z M574.072,258.433h6.561v8.486C576.646,264.862,574.072,262.126,574.072,258.433z"/>
  </g>
  <path fill="#475900" d="M 30.852 3.117 C 46.177 3.117 58.591 15.531 58.591 30.857 C 58.591 46.177 46.177 58.59 30.852 58.59 C 15.537 58.59 3.112 46.177 3.112 30.857 C 3.112 15.531 15.537 3.117 30.852 3.117 M 30.852 0 C 13.828 0 0 13.85 0 30.857 C 0 47.86 13.827 61.708 30.852 61.708 C 47.865 61.708 61.703 47.86 61.703 30.857 C 61.703 13.85 47.865 0 30.852 0 Z"/>
</svg>