<?xml version="1.0" encoding="utf-8"?>
<svg viewBox="0 0 61.713 61.708" width="61.713" height="61.708" xmlns="http://www.w3.org/2000/svg">
  <path fill="#AAEA0D" d="M 30.861 3.117 C 46.176 3.117 58.601 15.531 58.601 30.857 C 58.601 46.177 46.176 58.59 30.861 58.59 C 15.525 58.59 3.122 46.177 3.122 30.857 C 3.121 15.531 15.525 3.117 30.861 3.117"/>
  <path fill="#215200" d="M 11.285 32.408 C 11.285 41.273 19.998 48.419 30.788 48.419 C 41.589 48.419 50.301 41.273 50.301 32.408 L 11.285 32.408 Z"/>
  <path fill="#215200" d="M 40.543 16.471 C 36.641 16.471 34.046 19.076 32.738 21.997 L 35.016 23.627 C 36.324 21.349 37.948 20.046 40.542 20.046 C 43.136 20.046 45.099 21.676 46.069 23.627 L 48.337 21.997 C 47.051 19.076 44.447 16.471 40.543 16.471 Z"/>
  <path fill="#215200" d="M 21.041 16.471 C 17.128 16.471 14.533 19.076 13.236 21.997 L 15.504 23.627 C 16.801 21.349 18.436 20.046 21.041 20.046 C 23.636 20.046 25.587 21.676 26.558 23.627 L 28.836 21.997 C 27.538 19.076 24.944 16.471 21.041 16.471 Z"/>
  <path fill="#215200" d="M 30.861 3.117 C 46.176 3.117 58.601 15.531 58.601 30.857 C 58.601 46.177 46.176 58.59 30.861 58.59 C 15.525 58.59 3.122 46.177 3.122 30.857 C 3.121 15.531 15.525 3.117 30.861 3.117 M 30.861 0 C 13.848 0 0 13.85 0 30.857 C 0 47.86 13.849 61.708 30.861 61.708 C 47.864 61.708 61.713 47.86 61.713 30.857 C 61.712 13.85 47.864 0 30.861 0 Z"/>
</svg>